<svg width="100" height="100" viewBox="0 0 100 100" fill="none" xmlns="http://www.w3.org/2000/svg">
<g clip-path="url(#clip0)">
<path d="M47.2 84.17C41.78 84.61 30.49 83.35 23.39 75.51C15.02 66.26 16.09 43.68 16.66 31.51C16.76 29.3 16.85 27.39 16.85 26.12C16.85 18.28 14.54 0.339993 14.51 0.119993V-0.0700073H0V100H47.5V99.93C47.732 94.6756 47.6318 89.4118 47.2 84.17V84.17Z" fill="#4949E7"/>
<path d="M17.5098 0C17.7498 1.87 19.8498 18.44 19.8498 26.15C19.8498 27.49 19.7598 29.34 19.6498 31.68C19.0998 43.38 18.0698 65.16 25.6498 73.49C32.1198 80.64 42.9698 81.9 48.2898 81.02L49.7998 80.77L49.8798 81.32C61.4598 79.41 74.4698 74.52 74.4698 74.52C71.5298 85.75 55.6398 94 50.5998 96.37C50.5998 98.43 50.4998 99.84 50.4898 100H99.9998V0H17.5098Z" fill="#C7EBFF"/>
<path d="M28.9696 26.4C30.1405 26.4 31.0896 25.2135 31.0896 23.75C31.0896 22.2864 30.1405 21.1 28.9696 21.1C27.7988 21.1 26.8496 22.2864 26.8496 23.75C26.8496 25.2135 27.7988 26.4 28.9696 26.4Z" fill="#4949E7"/>
<path d="M59.3505 25.62C60.5213 25.62 61.4705 24.4336 61.4705 22.97C61.4705 21.5065 60.5213 20.32 59.3505 20.32C58.1796 20.32 57.2305 21.5065 57.2305 22.97C57.2305 24.4336 58.1796 25.62 59.3505 25.62Z" fill="#4949E7"/>
<path d="M35.9995 49.07C35.6521 49.3527 35.237 49.5402 34.7952 49.6138C34.3533 49.6874 33.8999 49.6448 33.4795 49.49C33.1631 49.3993 32.8721 49.2365 32.6292 49.0144C32.3863 48.7924 32.1981 48.517 32.0795 48.21C31.8795 47.32 32.2595 46.91 34.2795 45.21L34.8095 44.77C37.6795 42.34 36.8095 37.25 36.7395 36.68C36.6653 36.2755 36.4334 35.9171 36.0949 35.6837C35.7564 35.4502 35.339 35.3607 34.9345 35.435C34.5301 35.5092 34.1717 35.7411 33.9382 36.0796C33.7047 36.4181 33.6153 36.8355 33.6895 37.24C33.8695 38.24 34.0995 41.31 32.8095 42.41L32.2895 42.85C30.2095 44.59 28.4195 46.1 29.0595 48.91C29.2872 49.7324 29.7165 50.485 30.3084 51.0996C30.9004 51.7142 31.6363 52.1715 32.4495 52.43C33.069 52.6516 33.7216 52.7666 34.3795 52.77C35.6628 52.7572 36.9037 52.3095 37.8995 51.5C38.1773 51.2343 38.3464 50.8748 38.374 50.4914C38.4017 50.108 38.2859 49.728 38.0491 49.4252C37.8123 49.1224 37.4715 48.9184 37.0928 48.8527C36.714 48.7871 36.3244 48.8645 35.9995 49.07V49.07Z" fill="#5EB2FC"/>
<path d="M58.5195 53.44C58.2025 53.2002 57.8033 53.0961 57.4095 53.1505C57.0158 53.2048 56.6597 53.4133 56.4195 53.73C51.6295 60.06 45.5795 59.06 45.3195 59C45.0277 58.9472 44.7268 58.9822 44.4548 59.1004C44.1828 59.2186 43.952 59.4148 43.7915 59.6641C43.631 59.9135 43.548 60.2048 43.5529 60.5013C43.5579 60.7978 43.6507 61.0862 43.8195 61.33C43.9354 61.4958 44.0838 61.6363 44.2557 61.7429C44.4276 61.8495 44.6195 61.9199 44.8195 61.95C45.3684 62.0373 45.9238 62.0774 46.4795 62.07C49.2495 62.07 54.5295 61.22 58.8395 55.52C59.0698 55.2007 59.1654 54.8036 59.1055 54.4144C59.0456 54.0253 58.8352 53.6753 58.5195 53.44V53.44Z" fill="#2C8CF4"/>
<path d="M23.6805 37.92C24.3432 37.92 24.8805 37.4678 24.8805 36.91C24.8805 36.3522 24.3432 35.9 23.6805 35.9C23.0177 35.9 22.4805 36.3522 22.4805 36.91C22.4805 37.4678 23.0177 37.92 23.6805 37.92Z" fill="#92CDFA"/>
<path d="M24.5302 44.6C25.1046 44.6 25.5702 44.1344 25.5702 43.56C25.5702 42.9856 25.1046 42.52 24.5302 42.52C23.9559 42.52 23.4902 42.9856 23.4902 43.56C23.4902 44.1344 23.9559 44.6 24.5302 44.6Z" fill="#92CDFA"/>
<path d="M29.7291 38.73C30.4802 38.73 31.0891 38.2644 31.0891 37.69C31.0891 37.1156 30.4802 36.65 29.7291 36.65C28.978 36.65 28.3691 37.1156 28.3691 37.69C28.3691 38.2644 28.978 38.73 29.7291 38.73Z" fill="#92CDFA"/>
<path d="M46.6805 37.69C47.3432 37.69 47.8805 37.2781 47.8805 36.77C47.8805 36.2619 47.3432 35.85 46.6805 35.85C46.0177 35.85 45.4805 36.2619 45.4805 36.77C45.4805 37.2781 46.0177 37.69 46.6805 37.69Z" fill="#92CDFA"/>
<path d="M58.7191 37.69C59.5088 37.69 60.1491 37.1751 60.1491 36.54C60.1491 35.9049 59.5088 35.39 58.7191 35.39C57.9293 35.39 57.2891 35.9049 57.2891 36.54C57.2891 37.1751 57.9293 37.69 58.7191 37.69Z" fill="#92CDFA"/>
<path d="M53.9124 44.3824C54.549 44.2719 54.9878 43.7367 54.8923 43.1872C54.7969 42.6376 54.2035 42.2817 53.5668 42.3922C52.9302 42.5027 52.4914 43.0379 52.5868 43.5875C52.6823 44.137 53.2757 44.493 53.9124 44.3824Z" fill="#92CDFA"/>
<path d="M68.9442 34.9012C69.7984 34.8458 70.4544 34.2379 70.4094 33.5435C70.3644 32.8491 69.6354 32.3311 68.7811 32.3865C67.9269 32.4419 67.2709 33.0497 67.3159 33.7441C67.3609 34.4385 68.0899 34.9566 68.9442 34.9012Z" fill="#92CDFA"/>
<path d="M50.5998 96.37C55.5998 94 71.5198 85.75 74.4298 74.51C74.4298 74.51 61.4298 79.4 49.8398 81.31L49.9798 82.31C50.5216 86.9759 50.7288 91.6746 50.5998 96.37V96.37Z" fill="#92CDFA"/>
<path d="M65.8903 7.1C64.6928 6.49267 63.4318 6.01979 62.1303 5.69C59.4552 5.02926 56.6547 5.0706 54.0003 5.81C52.5899 6.16994 51.2415 6.73962 50.0003 7.5L49.8803 7.58C49.5725 7.80921 49.3392 8.12413 49.2096 8.48532C49.08 8.84651 49.0598 9.23792 49.1516 9.61052C49.2435 9.98311 49.4432 10.3203 49.7258 10.58C50.0083 10.8396 50.3613 11.01 50.7403 11.07H51.0303C51.4722 11.0686 51.9012 10.9209 52.2503 10.65C52.6536 10.3676 53.0782 10.1169 53.5203 9.9C54.0015 9.67415 54.4957 9.47714 55.0003 9.31C57.0598 8.59914 59.2691 8.43715 61.4103 8.84C62.5237 9.0533 63.6103 9.38865 64.6503 9.84C65.0071 9.96479 65.3979 9.95025 65.7445 9.79929C66.091 9.64834 66.3678 9.3721 66.5195 9.02584C66.6711 8.67958 66.6864 8.28883 66.5624 7.93176C66.4383 7.57469 66.184 7.27763 65.8503 7.1H65.8903ZM29.0003 10.72C29.4919 11.0932 29.9063 11.5586 30.2203 12.09L30.2803 12.19C30.5045 12.4977 30.8374 12.7085 31.2114 12.7799C31.5853 12.8512 31.9724 12.7777 32.2942 12.5742C32.616 12.3707 32.8483 12.0525 32.9441 11.684C33.04 11.3156 32.9921 10.9245 32.8103 10.59C32.3048 9.68833 31.6249 8.89628 30.8103 8.26C29.9874 7.65046 29.0583 7.19944 28.0703 6.93C27.1362 6.68851 26.1751 6.56753 25.2103 6.57C24.2549 6.56481 23.3021 6.66882 22.3703 6.88C22.1399 6.91006 21.9186 6.98903 21.7212 7.11161C21.5238 7.23419 21.3549 7.39756 21.2259 7.59075C21.0968 7.78394 21.0105 8.00249 20.9728 8.23176C20.9351 8.46102 20.9468 8.6957 21.0072 8.92006C21.0676 9.14442 21.1753 9.35327 21.323 9.53261C21.4707 9.71195 21.6551 9.85764 21.8637 9.95991C22.0723 10.0622 22.3004 10.1187 22.5327 10.1256C22.7649 10.1325 22.9959 10.0897 23.2103 10C23.8853 9.83666 24.5759 9.74615 25.2703 9.73C25.9427 9.71389 26.6144 9.78107 27.2703 9.93C27.8912 10.083 28.478 10.3509 29.0003 10.72V10.72Z" fill="#1273EB"/>
<path d="M50.0007 82.29L49.8607 81.29L49.7807 80.74L48.2507 81C42.9307 81.89 32.0807 80.63 25.6107 73.47C18.0707 65.14 19.1007 43.36 19.6107 31.66C19.7207 29.32 19.8107 27.47 19.8107 26.13C19.8107 18.42 17.7107 1.84998 17.4707 -0.0200195H14.4707V0.16998C14.4707 0.34998 16.8107 18.28 16.8107 26.17C16.8107 27.44 16.7207 29.35 16.6207 31.56C16.0507 43.69 14.9807 66.27 23.3507 75.56C30.4507 83.41 41.7407 84.67 47.1607 84.22C47.5958 89.4615 47.6994 94.7254 47.4707 99.98V100H50.4707C50.4707 99.84 50.5407 98.43 50.5807 96.37C50.7239 91.6688 50.5301 86.9634 50.0007 82.29V82.29Z" fill="#5EB2FC"/>
</g>
<defs>
<clipPath id="clip0">
<rect width="100" height="100" fill="white"/>
</clipPath>
</defs>
</svg>
